<?xml version="1.0" standalone="no"?><!DOCTYPE svg PUBLIC "-//W3C//DTD SVG 1.1//EN" "http://www.w3.org/Graphics/SVG/1.1/DTD/svg11.dtd"><svg t="1500727278128" class="icon" style="" viewBox="0 0 1024 1024" version="1.1" xmlns="http://www.w3.org/2000/svg" p-id="2960" xmlns:xlink="http://www.w3.org/1999/xlink" width="200" height="200"><defs><style type="text/css"></style></defs><path d="M910.051689 558.934136c-24.76032 0-44.782532 20.066786-44.782531 44.778918V832.933647c0 19.802955-16.075595 35.879755-35.830363 35.879755H184.488659c-19.757176 0-35.796631-16.0768-35.796631-35.879755V188.031699c0-19.757176 16.039454-35.838795 35.796631-35.838795H386.017882c24.753092 0 44.775304-20.060762 44.775304-44.766871 0-24.714541-20.022212-44.782532-44.775304-44.782532H184.488659c-69.133252 0-125.390607 56.259765-125.390607 125.390607v644.905563c0 69.170598 56.256151 125.429158 125.390607 125.429157h644.944113c69.126024 0 125.433976-56.257355 125.433976-125.429157V603.713054c0-24.712132-20.065581-44.778918-44.815059-44.778918m0 0z" fill="#999999" p-id="2961"></path><path d="M456.511247 702.772405c1.354089 0.127699 2.714202 0.175887 4.073111 0.175887 22.915915 0 42.45504-17.480282 44.560866-40.787727 2.491332-27.733534 14.629948-110.320941 40.3456-158.512791 35.314748-65.980536 100.990494-188.828009 276.800451-211.96559 3.021402-0.434899 5.568151-1.921506 8.370297-2.89009L755.392753 446.339915c-10.692969 22.301515-1.227595 49.066466 21.117289 59.676311a44.323539 44.323539 0 0 0 19.229516 4.375492c16.741798 0 32.775228-9.372612 40.440771-25.455436l115.831266-242.450673a44.56448 44.56448 0 0 0 1.799831-34.216056c-3.935774-11.217016-12.219332-20.363144-22.912301-25.4976L688.447247 67.025016c-22.256941-10.605026-49.026711-1.140856-59.714861 21.116085-10.688151 22.296696-1.227595 49.066466 21.117289 59.671492l127.443426 60.897882c-196.706786 40.045628-276.004141 187.642579-310.746654 252.699106-39.561336 73.949666-50.165158 187.955802-50.607285 192.727643-2.227501 24.662739 15.949101 46.395633 40.572085 48.635181m0 0z" fill="#999999" p-id="2962"></path></svg>